<svg preserveAspectRatio="none" overflow="visible" style="display: block;" width="45" height="22.3809" viewBox="0 0 45 22.3809" fill="none" xmlns="http://www.w3.org/2000/svg">
<g id="Toggle">
<path id="Vector" d="M41.7045 3.27706C43.278 4.84207 44.3496 6.83612 44.7838 9.00699C45.2179 11.1779 44.9952 13.4281 44.1436 15.473C43.292 17.5179 41.85 19.2657 39.9998 20.4953C38.1496 21.7249 35.9743 22.3811 33.7492 22.3809H11.2497C8.26611 22.3809 5.4047 21.2019 3.29497 19.1033C1.18524 17.0047 0 14.1583 0 11.1904C0 8.22255 1.18524 5.37622 3.29497 3.2776C5.4047 1.17899 8.26611 5.31888e-08 11.2497 5.31888e-08H33.7492C35.2266 -0.000143225 36.6895 0.289185 38.0545 0.851465C39.4195 1.41375 40.6597 2.23796 41.7045 3.27706ZM15.5232 15.9379C16.6273 14.8395 17.3145 13.3942 17.4675 11.8483C17.6205 10.3023 17.2298 8.75149 16.3622 7.45993C15.4946 6.16838 14.2035 5.21605 12.7092 4.76519C11.2148 4.31434 9.60944 4.39287 8.16673 4.9874C6.72401 5.58193 5.53317 6.65567 4.7971 8.02568C4.06104 9.39568 3.82529 10.9772 4.13003 12.5007C4.43477 14.0242 5.26115 15.3955 6.46835 16.3809C7.67555 17.3663 9.18889 17.9048 10.7505 17.9047C12.5402 17.9042 14.2577 17.1968 15.5232 15.9379Z" fill="#707070"/>
</g>
</svg>
